<svg width="18" height="19" viewBox="0 0 18 19" fill="none" xmlns="http://www.w3.org/2000/svg">
    <path d="M16.3259 3.26672C17 4.22963 17 5.5701 17 8.25102C17 10.9319 17 12.2724 16.3259 13.2353C16.034 13.6522 15.659 14.0101 15.2223 14.2886C14.3409 14.8507 13.1577 14.9217 11 14.9307V14.932L9.89443 17.0424C9.5259 17.7459 8.4741 17.7459 8.10557 17.0424L7 14.932V14.9307C4.8423 14.9217 3.65907 14.8507 2.77772 14.2886C2.34096 14.0101 1.96596 13.6522 1.67412 13.2353C1 12.2724 1 10.9319 1 8.25102C1 5.5701 1 4.22963 1.67412 3.26672C1.96596 2.84986 2.34096 2.49194 2.77772 2.21341C3.78661 1.57001 5.19108 1.57001 8 1.57001H10C12.8089 1.57001 14.2134 1.57001 15.2223 2.21341C15.659 2.49194 16.034 2.84986 16.3259 3.26672Z" stroke="#FDFDFD" stroke-width="2" stroke-linecap="round" stroke-linejoin="round"/>
    <path d="M5 5.57001L12 5.57001" stroke="#FDFDFD" stroke-width="2" stroke-linecap="round" stroke-linejoin="round"/>
    <path d="M5 9.57001H8" stroke="#FDFDFD" stroke-width="2" stroke-linecap="round" stroke-linejoin="round"/>
</svg>
