<svg width="24" height="23" viewBox="0 0 24 23" fill="none" xmlns="http://www.w3.org/2000/svg">
    <mask id="path-1-inside-1_340_96" fill="white">
        <path fill-rule="evenodd" clip-rule="evenodd" d="M23.4266 12.3415C23.8646 11.9459 23.8666 11.259 23.4309 10.861L12.7352 1.09091C12.0944 0.505573 11.0632 0.958594 11.0607 1.82654L11.0491 5.88193H5.24365V17.1229H11.0168L11.0048 21.308C11.0023 22.1759 12.0309 22.6346 12.675 22.0528L23.4266 12.3415ZM4.24365 17.1229H3.24365V5.88193H4.24365V17.1229ZM2.24365 17.1229V5.88193H1.24365C0.691368 5.88193 0.243652 6.32964 0.243652 6.88193V16.1229C0.243652 16.6752 0.691368 17.1229 1.24365 17.1229H2.24365Z"/>
    </mask>
    <path d="M23.4309 10.861L24.7798 9.38436L24.7798 9.38436L23.4309 10.861ZM23.4266 12.3415L24.7672 13.8256V13.8256L23.4266 12.3415ZM12.7352 1.09091L14.0841 -0.385751V-0.385751L12.7352 1.09091ZM11.0607 1.82654L9.06072 1.8208V1.8208L11.0607 1.82654ZM11.0491 5.88193V7.88193H13.0433L13.0491 5.88767L11.0491 5.88193ZM5.24365 5.88193V3.88193H3.24365V5.88193H5.24365ZM5.24365 17.1229H3.24365V19.1229H5.24365V17.1229ZM11.0168 17.1229L13.0168 17.1287L13.0226 15.1229H11.0168V17.1229ZM11.0048 21.308L9.00481 21.3022V21.3022L11.0048 21.308ZM12.675 22.0528L14.0156 23.537L14.0156 23.537L12.675 22.0528ZM4.24365 17.1229V19.1229H6.24365V17.1229H4.24365ZM3.24365 17.1229H1.24365V19.1229H3.24365V17.1229ZM3.24365 5.88193V3.88193H1.24365V5.88193H3.24365ZM4.24365 5.88193H6.24365V3.88193H4.24365V5.88193ZM2.24365 5.88193H4.24365V3.88193H2.24365V5.88193ZM2.24365 17.1229V19.1229H4.24365V17.1229H2.24365ZM22.082 12.3377C21.6461 11.9395 21.6483 11.2526 22.0861 10.8573L24.7672 13.8256C26.0809 12.6391 26.0871 10.5786 24.7798 9.38436L22.082 12.3377ZM11.3863 2.56758L22.082 12.3377L24.7798 9.38436L14.0841 -0.385751L11.3863 2.56758ZM13.0607 1.83228C13.0582 2.69969 12.0275 3.15326 11.3863 2.56758L14.0841 -0.385751C12.1613 -2.14211 9.06819 -0.782504 9.06072 1.8208L13.0607 1.83228ZM13.0491 5.88767L13.0607 1.83228L9.06072 1.8208L9.04908 5.87619L13.0491 5.88767ZM5.24365 7.88193H11.0491V3.88193H5.24365V7.88193ZM3.24365 5.88193V17.1229H7.24365V5.88193H3.24365ZM11.0168 15.1229H5.24365V19.1229H11.0168V15.1229ZM13.0048 21.3137L13.0168 17.1287L9.01682 17.1172L9.00481 21.3022L13.0048 21.3137ZM11.3345 20.5686C11.9782 19.9871 13.0073 20.4452 13.0048 21.3137L9.00481 21.3022C8.99734 23.9066 12.0836 25.282 14.0156 23.537L11.3345 20.5686ZM22.0861 10.8573L11.3345 20.5686L14.0156 23.537L24.7672 13.8256L22.0861 10.8573ZM4.24365 15.1229H3.24365V19.1229H4.24365V15.1229ZM5.24365 17.1229V5.88193H1.24365V17.1229H5.24365ZM3.24365 7.88193H4.24365V3.88193H3.24365V7.88193ZM6.24365 17.1229V5.88193H2.24365V17.1229H6.24365ZM0.243652 5.88193V17.1229H4.24365V5.88193H0.243652ZM1.24365 7.88193H2.24365V3.88193H1.24365V7.88193ZM2.24365 6.88193C2.24365 7.43421 1.79594 7.88193 1.24365 7.88193V3.88193C-0.413202 3.88193 -1.75635 5.22507 -1.75635 6.88193H2.24365ZM2.24365 16.1229V6.88193H-1.75635V16.1229H2.24365ZM1.24365 15.1229C1.79594 15.1229 2.24365 15.5706 2.24365 16.1229H-1.75635C-1.75635 17.7798 -0.413201 19.1229 1.24365 19.1229V15.1229ZM2.24365 15.1229H1.24365V19.1229H2.24365V15.1229Z" fill="white" mask="url(#path-1-inside-1_340_96)"/>
</svg>
