<svg width="24" height="25" viewBox="0 0 24 25" fill="none" xmlns="http://www.w3.org/2000/svg">
    <path d="M14.1363 3.93141L15.1313 3.83191V3.83191L14.1363 3.93141ZM13.9839 3.11166L14.8727 2.65331L14.8727 2.65331L13.9839 3.11166ZM14.4311 5.38767L13.636 5.99411L13.636 5.99411L14.4311 5.38767ZM15.3597 5.7723L15.2263 4.78124H15.2263L15.3597 5.7723ZM16.5979 4.95108L17.2311 5.72504V5.72504L16.5979 4.95108ZM17.2852 4.47921L16.9808 3.52666V3.52666L17.2852 4.47921ZM17.9872 4.51423L17.5896 5.43176L17.5896 5.43176L17.9872 4.51423ZM18.6241 5.05214L17.917 5.75925L17.917 5.75925L18.6241 5.05214ZM19.5177 5.94568L20.2248 5.23857L20.2248 5.23857L19.5177 5.94568ZM20.0557 6.58276L19.1381 6.98034L19.1381 6.98035L20.0557 6.58276ZM20.0907 7.28465L19.1381 6.98034V6.98034L20.0907 7.28465ZM19.6188 7.97211L18.8447 7.33883L18.8379 7.34741L19.6188 7.97211ZM19.6187 7.97213L20.3927 8.60541L20.3996 8.59682L19.6187 7.97213ZM18.7974 9.21055L19.7885 9.34387V9.34386L18.7974 9.21055ZM19.1819 10.1389L18.5754 10.934V10.934L19.1819 10.1389ZM20.6385 10.4339L20.539 11.4289H20.539L20.6385 10.4339ZM21.4584 10.5863L21 11.475L21.4584 10.5863ZM21.9299 11.1073L21 11.475L21 11.475L21.9299 11.1073ZM21.93 14.0327L22.8599 14.4003L22.8599 14.4003L21.93 14.0327ZM21.4583 14.5538L21 13.665V13.665L21.4583 14.5538ZM20.6386 14.7062L20.5391 13.7111L20.5268 13.7123L20.5145 13.7139L20.6386 14.7062ZM20.6385 14.7062L20.738 15.7012L20.7503 15.7L20.7626 15.6984L20.6385 14.7062ZM19.1824 15.0009L18.576 14.2057L18.576 14.2057L19.1824 15.0009ZM18.7977 15.9296L19.7888 15.7961L19.7888 15.7961L18.7977 15.9296ZM19.6188 17.1676L20.3997 16.5429L20.3928 16.5344L19.6188 17.1676ZM19.6188 17.1676L18.8379 17.7923L18.8449 17.8008L19.6188 17.1676ZM20.0906 17.8548L21.0432 17.5503L21.0432 17.5503L20.0906 17.8548ZM20.0556 18.5569L20.9731 18.9547L20.9731 18.9547L20.0556 18.5569ZM19.5178 19.1937L20.2249 19.9009L20.2249 19.9008L19.5178 19.1937ZM17.9872 20.6253L18.3849 21.5429H18.3849L17.9872 20.6253ZM17.2851 20.6604L17.5895 19.7078H17.5895L17.2851 20.6604ZM16.5979 20.1885L17.2311 19.4145L17.2226 19.4076L16.5979 20.1885ZM16.5978 20.1885L15.9646 20.9625L15.9731 20.9694L16.5978 20.1885ZM15.3598 19.3673L15.2263 20.3584L15.2263 20.3584L15.3598 19.3673ZM14.4311 19.752L15.2263 20.3584L15.2263 20.3584L14.4311 19.752ZM14.1363 21.2084L15.1314 21.3079V21.3079L14.1363 21.2084ZM13.9839 22.0284L13.0952 21.57L13.0952 21.57L13.9839 22.0284ZM13.4629 22.4999L13.8306 23.4299L13.4629 22.4999ZM10.5374 22.4999L10.9051 21.57H10.9051L10.5374 22.4999ZM10.0164 22.0285L10.9051 21.57L10.9051 21.57L10.0164 22.0285ZM9.864 21.2085L8.86897 21.308L9.864 21.2085ZM9.56901 19.7518L10.364 19.1452H10.364L9.56901 19.7518ZM8.64078 19.3673L8.50755 18.3762H8.50754L8.64078 19.3673ZM7.40209 20.1888L6.76885 19.4148H6.76885L7.40209 20.1888ZM6.71444 20.6609L7.01866 21.6135L7.01866 21.6135L6.71444 20.6609ZM6.01271 20.6259L5.61521 21.5435H5.61521L6.01271 20.6259ZM5.37547 20.0877L6.08258 19.3806L6.08257 19.3806L5.37547 20.0877ZM4.48209 19.1944L3.77499 19.9015L3.77499 19.9015L4.48209 19.1944ZM3.94406 18.5573L4.86163 18.1597L4.86163 18.1597L3.94406 18.5573ZM3.90906 17.8554L2.95648 17.5511H2.95648L3.90906 17.8554ZM4.38104 17.1679L3.60708 16.5346H3.60708L4.38104 17.1679ZM5.2024 15.9295L4.21133 15.7961L4.21133 15.7961L5.2024 15.9295ZM4.81783 15.001L5.42433 14.206L5.42433 14.206L4.81783 15.001ZM3.36141 14.7061L3.46091 13.7111H3.46091L3.36141 14.7061ZM2.54163 14.5538L2.08326 15.4425H2.08326L2.54163 14.5538ZM2.07004 14.0327L1.14008 14.4003L1.14008 14.4003L2.07004 14.0327ZM2.07007 11.1073L1.14014 10.7395L1.14014 10.7395L2.07007 11.1073ZM2.54156 10.5863L2.08311 9.69755L2.08311 9.69755L2.54156 10.5863ZM3.36151 10.4339V9.43386H3.31163L3.262 9.43882L3.36151 10.4339ZM3.36151 10.4339V11.4339H3.41139L3.46102 11.4289L3.36151 10.4339ZM4.81823 10.1389L4.21163 9.34386H4.21163L4.81823 10.1389ZM5.20272 9.21063L6.1938 9.0774V9.0774L5.20272 9.21063ZM4.38115 7.97186L3.60719 8.6051H3.60719L4.38115 7.97186ZM3.90898 7.28405L4.8616 6.97989L4.8616 6.97989L3.90898 7.28405ZM3.94397 6.58244L3.02635 6.185L3.02635 6.185L3.94397 6.58244ZM4.48218 5.94509L5.18929 6.6522L5.18929 6.6522L4.48218 5.94509ZM5.37541 5.05186L6.08252 5.75897L6.08252 5.75897L5.37541 5.05186ZM6.0127 4.5137L5.61522 3.59608L5.61522 3.59608L6.0127 4.5137ZM6.71438 4.4787L6.41018 5.43131L6.41018 5.43131L6.71438 4.4787ZM7.40216 4.95086L6.76892 5.72482L6.76892 5.72482L7.40216 4.95086ZM8.64066 5.77232L8.50729 6.76338H8.50729L8.64066 5.77232ZM9.56914 5.38773L8.77404 4.78125V4.78125L9.56914 5.38773ZM9.86402 3.93139L10.8591 4.03089L10.864 3.98126V3.93139H9.86402ZM9.86402 3.93138L8.86898 3.83188L8.86402 3.88151V3.93138H9.86402ZM10.0164 3.11166L9.1276 2.6533L9.1276 2.65331L10.0164 3.11166ZM10.5375 2.64004L10.9051 3.57001L10.9051 3.57001L10.5375 2.64004ZM13.4628 2.64004L13.0952 3.57001L13.0952 3.57001L13.4628 2.64004ZM15.1313 3.83191C15.111 3.6283 15.0914 3.42695 15.0628 3.25683C15.0326 3.07689 14.983 2.86712 14.8727 2.65331L13.0952 3.57001C13.0722 3.5255 13.0771 3.50879 13.0904 3.58799C13.1053 3.67702 13.1183 3.80088 13.1413 4.03092L15.1313 3.83191ZM15.2263 4.78124C15.2895 4.86416 15.2694 4.90083 15.2343 4.70579C15.2009 4.52031 15.174 4.25905 15.1313 3.83191L13.1413 4.03091C13.1806 4.4245 13.2153 4.7788 13.2659 5.05997C13.3148 5.33159 13.401 5.68603 13.636 5.99411L15.2263 4.78124ZM15.2263 4.78124L15.2263 4.78124L13.636 5.99411C14.0719 6.56559 14.7808 6.85925 15.4931 6.76335L15.2263 4.78124ZM15.9646 4.17712C15.6324 4.44895 15.4287 4.61467 15.2739 4.72222C15.1112 4.83531 15.1229 4.79515 15.2263 4.78124L15.4931 6.76336C15.8771 6.71166 16.1887 6.52203 16.4153 6.36453C16.6499 6.20149 16.925 5.9755 17.2311 5.72504L15.9646 4.17712ZM16.9808 3.52666C16.7517 3.59988 16.5683 3.71312 16.4197 3.81899C16.2792 3.91907 16.123 4.04757 15.9646 4.17712L17.2311 5.72504C17.41 5.57867 17.5067 5.50022 17.5802 5.44784C17.6456 5.40125 17.6372 5.41652 17.5896 5.43176L16.9808 3.52666ZM18.3849 3.59669C17.9407 3.40421 17.4419 3.37932 16.9808 3.52666L17.5896 5.43176V5.43176L18.3849 3.59669ZM19.3313 4.34504C19.1866 4.20037 19.0439 4.05696 18.9141 3.9434C18.7768 3.82327 18.6056 3.69235 18.3849 3.59669L17.5896 5.43176C17.5436 5.41185 17.5368 5.39583 17.5972 5.44869C17.6652 5.50812 17.7536 5.5958 17.917 5.75925L19.3313 4.34504ZM20.2248 5.23857L19.3313 4.34504L17.917 5.75925L18.8106 6.65278L20.2248 5.23857ZM20.9733 6.18518C20.8776 5.96442 20.7467 5.79317 20.6265 5.65582C20.5129 5.52597 20.3695 5.38327 20.2248 5.23857L18.8106 6.65278C18.9741 6.81627 19.0618 6.9047 19.1212 6.97265C19.1741 7.03309 19.158 7.02629 19.1381 6.98034L20.9733 6.18518ZM21.0433 7.58897C21.1905 7.12797 21.1657 6.62922 20.9733 6.18517L19.1381 6.98035V6.98034L21.0433 7.58897ZM20.3927 8.60535C20.5223 8.44697 20.6508 8.2907 20.7509 8.1502C20.8568 8.00157 20.9701 7.81815 21.0433 7.58897L19.1381 6.98034C19.1534 6.93264 19.1686 6.92428 19.122 6.98969C19.0697 7.06321 18.9912 7.15993 18.8448 7.33887L20.3927 8.60535ZM20.3996 8.59682L20.3996 8.5968L18.8379 7.34741L18.8379 7.34743L20.3996 8.59682ZM19.7885 9.34386C19.7746 9.44723 19.7344 9.45894 19.8475 9.29619C19.9551 9.14142 20.1208 8.93766 20.3927 8.60537L18.8448 7.33889C18.5943 7.64507 18.3682 7.92017 18.2052 8.15481C18.0476 8.38149 17.858 8.69317 17.8063 9.07724L19.7885 9.34386ZM19.7885 9.34387L19.7885 9.34387L17.8063 9.07724C17.7105 9.78937 18.0041 10.4982 18.5754 10.934L19.7885 9.34387ZM20.738 9.43882C20.3108 9.3961 20.0494 9.36922 19.8639 9.33584C19.6689 9.30073 19.7055 9.2806 19.7885 9.34386L18.5754 10.934C18.8835 11.169 19.238 11.2553 19.5097 11.3042C19.7909 11.3548 20.1453 11.3895 20.539 11.4289L20.738 9.43882ZM21.9168 9.69752C21.703 9.58722 21.4932 9.5376 21.3132 9.50738C21.1431 9.4788 20.9416 9.45918 20.738 9.43882L20.539 11.4289C20.7691 11.4519 20.893 11.4648 20.982 11.4798C21.0612 11.4931 21.0445 11.498 21 11.475L21.9168 9.69752ZM22.8599 10.7396C22.6819 10.2896 22.3469 9.91935 21.9168 9.69752L21 11.475L21 11.475L22.8599 10.7396ZM23 11.9383C23 11.7336 23.0005 11.5313 22.989 11.3591C22.9769 11.177 22.9484 10.9633 22.8599 10.7396L21 11.475C20.9816 11.4284 20.9881 11.4123 20.9935 11.4924C20.9995 11.5825 21 11.7071 21 11.9383H23ZM23 13.2018V11.9383H21V13.2018H23ZM22.8599 14.4003C22.9484 14.1766 22.9769 13.9629 22.989 13.7809C23.0005 13.6088 23 13.4065 23 13.2018H21C21 13.433 20.9995 13.5575 20.9935 13.6476C20.9881 13.7277 20.9816 13.7116 21 13.665L22.8599 14.4003ZM21.9167 15.4426C22.3469 15.2207 22.682 14.8504 22.8599 14.4003L21 13.665L21 13.665L21.9167 15.4426ZM20.7381 15.7012C20.9417 15.6808 21.143 15.6612 21.3132 15.6326C21.4931 15.6024 21.7029 15.5528 21.9167 15.4426L21 13.665C21.0445 13.6421 21.0612 13.647 20.982 13.6603C20.893 13.6752 20.7691 13.6881 20.5391 13.7111L20.7381 15.7012ZM20.7626 15.6984L20.7626 15.6984L20.5145 13.7139L20.5145 13.7139L20.7626 15.6984ZM19.7888 15.7961C19.7058 15.8593 19.6692 15.8392 19.8642 15.8041C20.0497 15.7708 20.3109 15.7439 20.738 15.7012L20.539 13.7111C20.1455 13.7505 19.7912 13.7852 19.5101 13.8357C19.2385 13.8846 18.8841 13.9708 18.576 14.2057L19.7888 15.7961ZM19.7888 15.7961V15.7961L18.576 14.2057C18.0044 14.6416 17.7107 15.3507 17.8067 16.0632L19.7888 15.7961ZM20.3928 16.5344C20.121 16.2022 19.9553 15.9985 19.8478 15.8438C19.7347 15.6811 19.7749 15.6928 19.7888 15.7961L17.8067 16.0632C17.8584 16.4471 18.048 16.7586 18.2055 16.9852C18.3685 17.2198 18.5944 17.4948 18.8449 17.8008L20.3928 16.5344ZM20.3997 16.5429L20.3997 16.5429L18.838 17.7923L18.838 17.7923L20.3997 16.5429ZM21.0432 17.5503C20.9699 17.3213 20.8567 17.1379 20.7509 16.9893C20.6508 16.8489 20.5223 16.6927 20.3928 16.5344L18.8449 17.8008C18.9912 17.9797 19.0697 18.0764 19.122 18.1499C19.1686 18.2153 19.1533 18.2069 19.1381 18.1592L21.0432 17.5503ZM20.9731 18.9547C21.1657 18.5105 21.1906 18.0115 21.0432 17.5503L19.1381 18.1592L19.1381 18.1592L20.9731 18.9547ZM20.2249 19.9008C20.3695 19.7562 20.5129 19.6136 20.6265 19.4838C20.7466 19.3465 20.8775 19.1753 20.9731 18.9547L19.1381 18.1592C19.158 18.1133 19.174 18.1065 19.1212 18.1669C19.0618 18.2348 18.9741 18.3232 18.8107 18.4866L20.2249 19.9008ZM20.2249 19.9009L20.2249 19.9009L18.8107 18.4866L18.8107 18.4867L20.2249 19.9009ZM19.3312 20.7946L20.2249 19.9009L18.8107 18.4867L17.917 19.3803L19.3312 20.7946ZM18.3849 21.5429C18.6056 21.4472 18.7768 21.3163 18.9141 21.1962C19.0439 21.0826 19.1865 20.9392 19.3312 20.7946L17.917 19.3803C17.7536 19.5438 17.6651 19.6315 17.5972 19.6909C17.5368 19.7437 17.5436 19.7277 17.5895 19.7078L18.3849 21.5429ZM16.9807 21.6129C17.4418 21.7603 17.9407 21.7354 18.3849 21.5429L17.5895 19.7078L17.5895 19.7078L16.9807 21.6129ZM15.9646 20.9625C16.123 21.092 16.2792 21.2205 16.4196 21.3206C16.5682 21.4264 16.7516 21.5397 16.9807 21.6129L17.5895 19.7078C17.6372 19.723 17.6456 19.7383 17.5802 19.6917C17.5067 19.6394 17.41 19.5609 17.2311 19.4146L15.9646 20.9625ZM15.9731 20.9694L15.9732 20.9694L17.2226 19.4076L17.2225 19.4076L15.9731 20.9694ZM15.2263 20.3584C15.123 20.3445 15.1113 20.3043 15.274 20.4174C15.4287 20.5249 15.6324 20.6907 15.9646 20.9625L17.2311 19.4145C16.925 19.1641 16.65 18.9381 16.4154 18.7751C16.1888 18.6176 15.8772 18.428 15.4932 18.3763L15.2263 20.3584ZM15.2263 20.3584H15.2263L15.4932 18.3763C14.7809 18.2804 14.0719 18.574 13.636 19.1456L15.2263 20.3584ZM15.1314 21.3079C15.1741 20.8807 15.2009 20.6194 15.2343 20.4339C15.2694 20.2388 15.2895 20.2755 15.2263 20.3584L13.636 19.1456C13.401 19.4537 13.3148 19.8081 13.2659 20.0797C13.2153 20.3609 13.1806 20.7152 13.1413 21.1089L15.1314 21.3079ZM14.8726 22.4869C14.9829 22.273 15.0326 22.0632 15.0628 21.8832C15.0914 21.713 15.111 21.5116 15.1314 21.3079L13.1413 21.1089C13.1183 21.339 13.1054 21.4629 13.0904 21.552C13.0771 21.6313 13.0722 21.6145 13.0952 21.57L14.8726 22.4869ZM13.8306 23.4299C14.2806 23.2519 14.6508 22.9169 14.8726 22.4869L13.0952 21.57L13.0952 21.57L13.8306 23.4299ZM12.6319 23.57C12.8365 23.57 13.0389 23.5705 13.211 23.559C13.3932 23.5469 13.6069 23.5184 13.8306 23.4299L13.0952 21.57C13.1417 21.5516 13.1579 21.5581 13.0777 21.5635C12.9877 21.5695 12.8631 21.57 12.6319 21.57V23.57ZM11.3685 23.57H12.6319V21.57H11.3685V23.57ZM10.1697 23.4299C10.3934 23.5184 10.6072 23.5469 10.7893 23.559C10.9614 23.5705 11.1638 23.57 11.3685 23.57V21.57C11.1372 21.57 11.0127 21.5695 10.9226 21.5635C10.8424 21.5581 10.8586 21.5516 10.9051 21.57L10.1697 23.4299ZM9.12769 22.4869C9.34952 22.9169 9.71971 23.2519 10.1697 23.4299L10.9051 21.57H10.9051L9.12769 22.4869ZM8.86897 21.308C8.88933 21.5117 8.90895 21.7131 8.93752 21.8832C8.96775 22.0632 9.01738 22.273 9.1277 22.4869L10.9051 21.57C10.9281 21.6145 10.9232 21.6312 10.9099 21.552C10.895 21.463 10.882 21.3391 10.859 21.109L8.86897 21.308ZM8.774 20.3584C8.71073 20.2754 8.73086 20.2387 8.76597 20.4338C8.79936 20.6194 8.82624 20.8807 8.86897 21.308L10.859 21.109C10.8197 20.7153 10.785 20.3609 10.7343 20.0796C10.6854 19.8079 10.5991 19.4533 10.364 19.1452L8.774 20.3584ZM8.774 20.3584L8.774 20.3584L10.364 19.1452C9.92823 18.574 9.21957 18.2805 8.50755 18.3762L8.774 20.3584ZM8.03532 20.9628C8.36769 20.6908 8.5715 20.525 8.72631 20.4174C8.8891 20.3043 8.87739 20.3445 8.77401 20.3584L8.50754 18.3762C8.1234 18.4278 7.81165 18.6175 7.58494 18.7751C7.35026 18.9382 7.0751 19.1643 6.76885 19.4148L8.03532 20.9628ZM7.01866 21.6135C7.24791 21.5403 7.43139 21.427 7.58005 21.3211C7.72059 21.2209 7.8769 21.0924 8.03532 20.9628L6.76885 19.4148C6.58986 19.5613 6.49311 19.6398 6.41956 19.6922C6.35413 19.7388 6.36249 19.7235 6.41021 19.7083L7.01866 21.6135ZM5.61521 21.5435C6.05916 21.7358 6.55778 21.7607 7.01866 21.6135L6.41022 19.7083L6.41021 19.7083L5.61521 21.5435ZM4.66836 20.7948C4.8131 20.9396 4.95584 21.083 5.08571 21.1967C5.2231 21.3168 5.39439 21.4478 5.61521 21.5435L6.41022 19.7083C6.45618 19.7282 6.46297 19.7442 6.40252 19.6913C6.33455 19.6319 6.2461 19.5441 6.08258 19.3806L4.66836 20.7948ZM3.77499 19.9015L4.66836 20.7948L6.08257 19.3806L5.1892 18.4873L3.77499 19.9015ZM3.02649 18.9548C3.12215 19.1756 3.2531 19.3469 3.37325 19.4842C3.48684 19.6141 3.63028 19.7568 3.77499 19.9015L5.1892 18.4873C5.02571 18.3238 4.93801 18.2353 4.87857 18.1674C4.82569 18.1069 4.84172 18.1137 4.86163 18.1597L3.02649 18.9548ZM2.95648 17.5511C2.80922 18.0121 2.8341 18.5108 3.02649 18.9548L4.86163 18.1597V18.1597L2.95648 17.5511ZM3.60708 16.5346C3.47749 16.693 3.34896 16.8493 3.24885 16.9898C3.14296 17.1385 3.02969 17.3219 2.95648 17.5511L4.86163 18.1597C4.84639 18.2074 4.83112 18.2157 4.87772 18.1503C4.93011 18.0768 5.00858 17.9801 5.155 17.8011L3.60708 16.5346ZM4.21133 15.7961C4.22524 15.6928 4.26541 15.6811 4.15229 15.8438C4.04472 15.9986 3.87896 16.2024 3.60708 16.5346L5.155 17.8011C5.40551 17.4949 5.63155 17.2198 5.79461 16.9852C5.95214 16.7585 6.14179 16.4469 6.19347 16.0628L4.21133 15.7961ZM4.21133 15.7961L6.19347 16.0628C6.28929 15.3506 5.99568 14.6418 5.42433 14.206L4.21133 15.7961ZM3.2619 15.7012C3.6891 15.7439 3.95038 15.7708 4.13588 15.8042C4.33093 15.8393 4.29425 15.8594 4.21133 15.7961L5.42433 14.206C5.11623 13.9709 4.76175 13.8847 4.49009 13.8358C4.20888 13.7852 3.85454 13.7505 3.46091 13.7111L3.2619 15.7012ZM2.08326 15.4425C2.29707 15.5528 2.50685 15.6024 2.68681 15.6326C2.85693 15.6612 3.0583 15.6808 3.26191 15.7012L3.46091 13.7111C3.23087 13.6881 3.10701 13.6752 3.01798 13.6603C2.93879 13.647 2.95549 13.6421 3 13.665L2.08326 15.4425ZM1.14008 14.4003C1.31802 14.8504 1.65312 15.2207 2.08326 15.4425L3 13.665H3L1.14008 14.4003ZM1 13.2018C1 13.4064 0.999483 13.6088 1.01098 13.7809C1.02314 13.9629 1.05163 14.1766 1.14008 14.4003L3 13.665C3.01841 13.7116 3.01188 13.7277 3.00653 13.6476C3.00052 13.5575 3 13.433 3 13.2018H1ZM1 11.9383V13.2018H3V11.9383H1ZM1.14014 10.7395C1.05165 10.9633 1.02315 11.177 1.01098 11.3591C0.999483 11.5313 1 11.7336 1 11.9383H3C3 11.7071 3.00052 11.5825 3.00654 11.4924C3.01189 11.4123 3.01842 11.4284 3 11.475L1.14014 10.7395ZM2.08311 9.69755C1.65309 9.91937 1.31807 10.2896 1.14014 10.7395L3 11.475L3 11.475L2.08311 9.69755ZM3.262 9.43882C3.05835 9.45918 2.85694 9.4788 2.68678 9.50738C2.50679 9.5376 2.29697 9.58723 2.08311 9.69755L3 11.475C2.95549 11.498 2.93877 11.4931 3.01798 11.4798C3.10703 11.4648 3.23092 11.4519 3.46101 11.4289L3.262 9.43882ZM3.36151 9.43386H3.36151V11.4339H3.36151V9.43386ZM4.21163 9.34386C4.29456 9.28058 4.33126 9.30071 4.13617 9.33582C3.95063 9.36921 3.6893 9.39609 3.26201 9.43882L3.46102 11.4289C3.85473 11.3895 4.20914 11.3548 4.49041 11.3042C4.76213 11.2553 5.11668 11.169 5.42483 10.9339L4.21163 9.34386ZM4.21163 9.34386L5.42483 10.9339C5.99598 10.4981 6.28952 9.78942 6.1938 9.0774L4.21163 9.34386ZM3.60719 8.6051C3.87915 8.93749 4.04497 9.14132 4.15257 9.29615C4.26572 9.45896 4.22553 9.44726 4.21163 9.34386L6.1938 9.0774C6.14216 8.69324 5.95246 8.38148 5.7949 8.15477C5.63179 7.92007 5.4057 7.6449 5.15511 7.33862L3.60719 8.6051ZM2.95636 7.58822C3.02957 7.81752 3.14288 8.00103 3.24881 8.14972C3.34895 8.29029 3.47754 8.44663 3.60719 8.6051L5.15511 7.33862C5.00863 7.15959 4.93012 7.06281 4.8777 6.98924C4.83107 6.92379 4.84636 6.93215 4.8616 6.97989L2.95636 7.58822ZM3.02635 6.185C2.83409 6.62888 2.80923 7.12741 2.95636 7.58822L4.8616 6.97989H4.8616L3.02635 6.185ZM3.77508 5.23798C3.63032 5.38274 3.48682 5.5255 3.3732 5.6554C3.253 5.79281 3.12201 5.96413 3.02635 6.185L4.8616 6.97989C4.84169 7.02586 4.82565 7.03266 4.87854 6.97219C4.93801 6.90421 5.02574 6.81575 5.18929 6.6522L3.77508 5.23798ZM4.66831 4.34475L3.77508 5.23798L5.18929 6.6522L6.08252 5.75897L4.66831 4.34475ZM5.61522 3.59608C5.39439 3.69174 5.22308 3.82272 5.08569 3.94291C4.9558 4.05653 4.81305 4.20001 4.66831 4.34475L6.08252 5.75897C6.24605 5.59543 6.33451 5.50771 6.40248 5.44825C6.46295 5.39536 6.45615 5.4114 6.41018 5.43131L5.61522 3.59608ZM7.01858 3.52609C6.55773 3.37892 6.05915 3.40379 5.61522 3.59608L6.41018 5.43131L6.41018 5.43131L7.01858 3.52609ZM8.0354 4.17691C7.87693 4.04726 7.72059 3.91867 7.58004 3.81853C7.43136 3.71261 7.24786 3.59931 7.01858 3.52609L6.41018 5.43131C6.36244 5.41606 6.35408 5.40078 6.41954 5.44741C6.49311 5.49983 6.58989 5.57834 6.76892 5.72482L8.0354 4.17691ZM8.77404 4.78125C8.87742 4.79517 8.88913 4.83534 8.72633 4.7222C8.57152 4.61461 8.36772 4.44881 8.0354 4.17691L6.76892 5.72482C7.07515 5.97537 7.35026 6.20142 7.58491 6.3645C7.81155 6.52202 8.12323 6.7117 8.50729 6.76338L8.77404 4.78125ZM8.77404 4.78125V4.78125L8.50729 6.76338C9.21951 6.85923 9.9284 6.5656 10.3642 5.99421L8.77404 4.78125ZM8.86898 3.83189C8.82626 4.25906 8.79939 4.52032 8.76602 4.70581C8.73092 4.90085 8.71079 4.86417 8.77404 4.78125L10.3642 5.99421C10.5992 5.68611 10.6855 5.33165 10.7344 5.06001C10.785 4.77882 10.8197 4.4245 10.8591 4.03089L8.86898 3.83189ZM8.86402 3.93138V3.93139H10.864V3.93138H8.86402ZM9.1276 2.65331C9.01734 2.86711 8.96773 3.07687 8.93752 3.25682C8.90895 3.42693 8.88934 3.62829 8.86898 3.83188L10.8591 4.03089C10.8821 3.80087 10.895 3.67701 10.9099 3.58799C10.9232 3.5088 10.9281 3.5255 10.9051 3.57001L9.1276 2.65331ZM10.1699 1.71007C9.71975 1.88801 9.34944 2.22314 9.1276 2.6533L10.9051 3.57001V3.57001L10.1699 1.71007ZM11.3683 1.57001C11.1637 1.57001 10.9614 1.56949 10.7893 1.58098C10.6072 1.59314 10.3936 1.62163 10.1699 1.71007L10.9051 3.57001C10.8586 3.58842 10.8424 3.58189 10.9226 3.57654C11.0126 3.57052 11.1372 3.57001 11.3683 3.57001V1.57001ZM12.632 1.57001H11.3683V3.57001H12.632V1.57001ZM13.8304 1.71007C13.6067 1.62163 13.3931 1.59314 13.211 1.58098C13.0389 1.56949 12.8366 1.57001 12.632 1.57001V3.57001C12.8632 3.57001 12.9877 3.57052 13.0778 3.57654C13.1579 3.58189 13.1417 3.58842 13.0952 3.57001L13.8304 1.71007ZM14.8727 2.65331C14.6509 2.22314 14.2806 1.88801 13.8304 1.71007L13.0952 3.57001L13.0952 3.57001L14.8727 2.65331ZM15.0001 12.57C15.0001 14.2269 13.6569 15.57 12.0001 15.57V17.57C14.7615 17.57 17.0001 15.3314 17.0001 12.57H15.0001ZM12.0001 9.57001C13.6569 9.57001 15.0001 10.9132 15.0001 12.57H17.0001C17.0001 9.80858 14.7615 7.57001 12.0001 7.57001V9.57001ZM9.00008 12.57C9.00008 10.9132 10.3432 9.57001 12.0001 9.57001V7.57001C9.23865 7.57001 7.00008 9.80858 7.00008 12.57H9.00008ZM12.0001 15.57C10.3432 15.57 9.00008 14.2269 9.00008 12.57H7.00008C7.00008 15.3314 9.23865 17.57 12.0001 17.57V15.57Z" fill="#FDFDFD"/>
</svg>
