<svg width="24" height="22" viewBox="0 0 24 22" fill="none" xmlns="http://www.w3.org/2000/svg">
    <path fill-rule="evenodd" clip-rule="evenodd" d="M12.2917 0.62907C12.1052 0.55032 11.8948 0.55032 11.7083 0.62907L0.458271 5.37907C0.180526 5.49634 0 5.76852 0 6.07001C0 6.37149 0.180526 6.64367 0.458271 6.76094L4.25 8.3619V12.1655C3.76381 12.2916 3.30237 12.5429 2.9228 12.9224C2.34402 13.5012 2 14.3327 2 15.3512V19.8512C2 20.1004 2.12795 20.3381 2.33509 20.4759C2.39421 20.5151 2.45249 20.5487 2.55517 20.6001C2.67876 20.6619 2.85216 20.7383 3.07529 20.8127C3.52261 20.9618 4.1651 21.1012 5 21.1012C5.83487 21.1012 6.47733 20.9619 6.92463 20.8128C7.14776 20.7384 7.32115 20.6621 7.44474 20.6003C7.54157 20.5519 7.59819 20.5187 7.65465 20.4828C7.86613 20.3452 8 20.1044 8 19.8513V15.3513C8 14.3329 7.65599 13.5013 7.07721 12.9225C6.69764 12.5429 6.2362 12.2916 5.75 12.1655V8.99523L11.7083 11.5109C11.8948 11.5897 12.1052 11.5897 12.2917 11.5109L17.5 9.31189V13.3141C17.4774 13.3396 17.4512 13.368 17.4213 13.3988C17.2597 13.5649 16.9876 13.8038 16.572 14.0491C15.7458 14.5367 14.3174 15.07 12 15.07C11.388 15.07 10.8384 15.0328 10.346 14.9692C9.93522 14.9162 9.55922 15.2062 9.50619 15.6171C9.45317 16.0279 9.74321 16.4039 10.154 16.4569C10.7132 16.5291 11.3271 16.57 12 16.57C14.5576 16.57 16.2543 15.9783 17.3343 15.3409C17.8718 15.0237 18.2481 14.7001 18.4968 14.4444C18.6402 14.2968 18.7814 14.1383 18.8894 13.9621L18.89 13.9611C18.9619 13.8433 19 13.708 19 13.57V8.67855L23.5417 6.76094C23.8195 6.64367 24 6.37149 24 6.07001C24 5.76852 23.8195 5.49634 23.5417 5.37907L12.2917 0.62907ZM4.99993 13.57C4.99992 13.57 4.99995 13.57 4.99993 13.57C4.62297 13.57 4.25546 13.7111 3.98345 13.9831C3.71848 14.2481 3.5 14.6821 3.5 15.3512V19.3727C3.7989 19.4779 4.29726 19.6012 5 19.6012C5.70271 19.6012 6.20108 19.478 6.5 19.3728V15.3513C6.5 14.6822 6.28151 14.2482 6.01654 13.9832C5.74451 13.7111 5.37691 13.57 4.99993 13.57ZM12 10.0059L2.67816 6.07001L12 2.13412L21.3218 6.07001L12 10.0059Z" fill="#FDFDFD"/>
</svg>
